{"title":"Red.Dawn.2012.WEBRip XViD-juggs","uid":8165264,"size":740766651,"categoryP":"video","categoryS":"movies","magnet":"?xt=urn:btih:ed5f9a64f9ff415db219757115f58d9174daa337&amp;dn=Red.Dawn.2012.WEBRip+XViD-juggs&amp;tr=udp%3A%2F%2Ftracker.openbittorrent.com%3A80&amp;tr=udp%3A%2F%2Fopen.demonii.com%3A1337&amp;tr=udp%3A%2F%2Ftracker.coppersurfer.tk%3A6969&amp;tr=udp%3A%2F%2Fexodus.desync.com%3A6969","seeders":1,"leechers":1,"uploader":"juggs99","files":3,"time":1361320879,"description":"Source : HD4FUN\n\n\nFormat : AVI\nFormat/Info : Audio Video Interleave\nFile size : 702 MiB\nDuration : 1h 33mn\nOverall bit rate : 1 052 Kbps\nWriting library : VirtualDub build 32842/release\n\nVideo\nID : 0\nFormat : MPEG-4 Visual\nFormat profile : Advanced Simple@L5\nFormat settings, BVOP : 4\nFormat settings, QPel : No\nFormat settings, GMC : No warppoints\nFormat settings, Matrix : Default (H.263)\nMuxing mode : Packed bitstream\nCodec ID : XVID\nCodec ID/Hint : XviD\nDuration : 1h 33mn\nBit rate : 914 Kbps\nWidth : 640 pixels\nHeight : 272 pixels\nDisplay aspect ratio : 2.35:1\nFrame rate : 23.976 fps\nColor space : YUV\nChroma subsampling : 4:2:0\nBit depth : 8 bits\nScan type : Progressive\nCompression mode : Lossy\nBits/(Pixel*Frame) : 0.219\nStream size : 611 MiB (87%)\nWriting library : XviD 64\n\nAudio\nID : 1\nFormat : MPEG Audio\nFormat version : Version 1\nFormat profile : Layer 3\nCodec ID : 55\nCodec ID/Hint : MP3\nDuration : 1h 33mn\nBit rate mode : Constant\nBit rate : 128 Kbps\nChannel(s) : 2 channels\nSampling rate : 44.1 KHz\nCompression mode : Lossy\nStream size : 85.5 MiB (12%)\nAlignment : Split accross interleaves\nInterleave, duration : 42 ms (1.00 video frame)\nInterleave, preload duration : 500 ms\nWriting library : LAME3.99r\nEncoding settings : -m s -V 4 -q 3 -lowpass 17 -b 128\n\n\nPlot\n\nA group of teenagers look to save their town from an invasion of North Korean soldiers.\n\n &lt;a href=&quot;\nhttp://www.shotpix.com/images/27093361541507677221.png&quot; rel=&quot;nofollow&quot; target=&quot;_NEW&quot;&gt;\nhttp://www.shotpix.com/images/27093361541507677221.png&lt;/a&gt; &lt;a href=&quot;\nhttp://www.shotpix.com/images/68875503788979464326.png&quot; rel=&quot;nofollow&quot; target=&quot;_NEW&quot;&gt;\nhttp://www.shotpix.com/images/68875503788979464326.png&lt;/a&gt; &lt;a href=&quot;\nhttp://www.shotpix.com/images/63498452313396831408.png&quot; rel=&quot;nofollow&quot; target=&quot;_NEW&quot;&gt;\nhttp://www.shotpix.com/images/63498452313396831408.png&lt;/a&gt;","torrent":{"xt":"urn:btih:ed5f9a64f9ff415db219757115f58d9174daa337","amp;dn":"Red.Dawn.2012.WEBRip+XViD-juggs","amp;tr":["udp%3A%2F%2Ftracker.openbittorrent.com%3A80","udp%3A%2F%2Fopen.demonii.com%3A1337","udp%3A%2F%2Ftracker.coppersurfer.tk%3A6969","udp%3A%2F%2Fexodus.desync.com%3A6969"],"infoHash":"ed5f9a64f9ff415db219757115f58d9174daa337","infoHashBuffer":{"type":"Buffer","data":[237,95,154,100,249,255,65,93,178,25,117,113,21,245,141,145,116,218,163,55]},"announce":[],"urlList":[]}}